<?xml version="1.0" standalone="no"?>
<!DOCTYPE svg PUBLIC "-//W3C//DTD SVG 1.1//EN" "http://www.w3.org/Graphics/SVG/1.1/DTD/svg11.dtd" >
<svg xmlns="http://www.w3.org/2000/svg">
<metadata></metadata>
<defs>
<font id="museo_slab_900regular" horiz-adv-x="1679" >
<font-face units-per-em="2048" ascent="1536" descent="-512" />
<missing-glyph horiz-adv-x="512" />
<glyph unicode="&#xfb01;" horiz-adv-x="1540" d="M76 799v256h143v43q0 72 17.5 130.5t46 98.5t69 70t81.5 47t89 27.5t86 14t78 3.5q32 0 63.5 -2t46.5 -4l15 -2v-279q-27 6 -86 6q-21 0 -36 -1t-39 -6.5t-39 -15.5t-26.5 -30.5t-11.5 -48.5v-51h783v-799h133v-256h-621v256h133v543h-428v-543h156v-256h-643v256h133 v543h-143zM1006 1188v276h346v-276h-346z" />
<glyph unicode="&#xfb02;" horiz-adv-x="1529" d="M76 799v256h143v22q0 93 32 167t87 122.5t132.5 80.5t164 46t186.5 14q120 0 246.5 -16.5t192.5 -32.5l67 -16v-1032q0 -77 20 -106.5t78 -29.5l43 2v-280q-44 -6 -112 -6q-62 0 -110 7t-101.5 31.5t-89 66.5t-59 117t-23.5 177v836q-76 18 -172 18q-109 0 -168.5 -40.5 t-59.5 -117.5v-30h218v-256h-218v-543h156v-256h-643v256h133v543h-143z" />
<glyph unicode="&#xfb03;" horiz-adv-x="2322" d="M76 799v256h143v43q0 72 17.5 130.5t46 98.5t69 70t81.5 47t89 27.5t86 14t78 3.5q32 0 63.5 -2t46.5 -4l15 -2v-279q-27 6 -86 6q-21 0 -36 -1t-39 -6.5t-39 -15.5t-26.5 -30.5t-11.5 -48.5v-51h428v43q0 72 17.5 130.5t46 98.5t69 70t81.5 47t89 27.5t86 14t78 3.5 q32 0 63.5 -2t46.5 -4l15 -2v-279q-27 6 -86 6q-27 0 -46.5 -2.5t-47 -11t-42.5 -31t-15 -57.5v-51h782v-799h133v-256h-620v256h133v543h-428v-543h155v-256h-643v256h133v543h-428v-543h156v-256h-643v256h133v543h-143zM1788 1188v276h346v-276h-346z" />
<glyph unicode="&#xfb04;" horiz-adv-x="2312" d="M76 799v256h143v43q0 72 17.5 130.5t46 98.5t69 70t81.5 47t89 27.5t86 14t78 3.5q32 0 63.5 -2t46.5 -4l15 -2v-279q-27 6 -86 6q-21 0 -36 -1t-39 -6.5t-39 -15.5t-26.5 -30.5t-11.5 -48.5v-51h428v22q0 93 32 167t87 122.5t133 80.5t164.5 46t186.5 14 q120 0 246.5 -16.5t192.5 -32.5l66 -16v-1032q0 -77 20 -106.5t79 -29.5l43 2v-280q-45 -6 -113 -6q-62 0 -110 7t-101.5 31.5t-89 66.5t-59 117t-23.5 177v836q-76 18 -172 18q-108 0 -167.5 -40.5t-59.5 -117.5v-30h217v-256h-217v-543h155v-256h-643v256h133v543h-428 v-543h156v-256h-643v256h133v543h-143z" />
<glyph horiz-adv-x="2048" />
<glyph horiz-adv-x="2048" />
<glyph unicode="&#xd;" horiz-adv-x="2048" />
<glyph unicode=" "  horiz-adv-x="512" />
<glyph unicode="&#x09;" horiz-adv-x="512" />
<glyph unicode="&#xa0;" horiz-adv-x="512" />
<glyph unicode="!" horiz-adv-x="602" d="M117 1464h368l-32 -1011h-303zM139 0v307h324v-307h-324z" />
<glyph unicode="&#x22;" horiz-adv-x="849" d="M104 1004v491h250v-491h-250zM496 1004v491h249v-491h-249z" />
<glyph unicode="#" horiz-adv-x="1441" d="M66 369l40 245h207l35 195h-203l41 246h203l72 409h274l-71 -409h221l71 409h275l-72 -409h215l-41 -246h-215l-35 -195h211l-41 -245h-211l-63 -369h-274l63 369h-221l-64 -369h-274l63 369h-206zM588 614h221l35 195h-221z" />
<glyph unicode="$" horiz-adv-x="1181" d="M63 215l181 252q7 -6 20.5 -16.5t53.5 -36.5t79.5 -46t94 -36.5t102.5 -16.5q67 0 114.5 31.5t47.5 87.5q0 33 -28.5 61t-75.5 47.5t-107 43.5t-122 47.5t-122 60t-107 80t-75.5 110t-28.5 146.5q0 156 109 269.5t282 146.5v223h224v-217q70 -8 134.5 -27.5t106 -41.5 t73 -43t45.5 -34l15 -14l-143 -272q-7 5 -18.5 14t-48 31t-73 39t-87 31t-95.5 14q-73 0 -119 -28t-46 -85q0 -40 36.5 -72t95.5 -55.5t129.5 -48t141.5 -58.5t130 -77t95.5 -112.5t36.5 -157.5q0 -105 -46.5 -197t-141 -158.5t-221.5 -85.5v-217h-224v217 q-76 11 -146.5 35.5t-118 52t-83.5 53.5t-53 43z" />
<glyph unicode="%" horiz-adv-x="1748" d="M68 1135q0 146 108 250t262 104q153 0 262 -104.5t109 -249.5q0 -147 -108.5 -250t-262.5 -103q-155 0 -262.5 102.5t-107.5 250.5zM150 0l1130 1464h311l-1130 -1464h-311zM326 1137q0 -45 33 -77t79 -32t79.5 32t33.5 77q0 43 -33.5 74.5t-79.5 31.5t-79 -31.5 t-33 -74.5zM942 328q0 146 108.5 250t262.5 104q153 0 261.5 -104.5t108.5 -249.5q0 -148 -108 -250.5t-262 -102.5q-155 0 -263 102.5t-108 250.5zM1200 330q0 -45 33.5 -77t79.5 -32t79 32t33 77q0 43 -33 74.5t-79 31.5t-79.5 -31.5t-33.5 -74.5z" />
<glyph unicode="&#x26;" horiz-adv-x="1429" d="M70 420q0 119 69.5 215t184.5 139v4q-8 3 -21 10t-46 33t-58.5 58.5t-46.5 90t-21 124.5q0 103 42.5 181.5t114.5 123.5t158 67.5t183 22.5q52 0 106.5 -6.5t82.5 -12.5l28 -6l-82 -280q-37 8 -80 8q-82 0 -136 -39t-54 -111q0 -66 39 -109.5t110 -43.5h219v190h352v-190 h183v-287h-183v-151q0 -132 -66.5 -239t-199 -172t-309.5 -65q-256 0 -412.5 127.5t-156.5 317.5zM436 453q0 -73 56.5 -116.5t150.5 -43.5q100 0 159.5 49.5t59.5 128.5v131h-241q-79 0 -132 -36.5t-53 -112.5z" />
<glyph unicode="'" horiz-adv-x="464" d="M104 1004v491h256v-491h-256z" />
<glyph unicode="(" horiz-adv-x="718" d="M109 711q0 435 253 825h291q-231 -386 -231 -825q0 -467 231 -906h-291q-121 192 -187 422.5t-66 483.5z" />
<glyph unicode=")" horiz-adv-x="718" d="M66 -195q231 439 231 906q0 439 -231 825h290q254 -392 254 -825q0 -504 -254 -906h-290z" />
<glyph unicode="*" horiz-adv-x="1003" d="M66 1034l94 293l209 -92l-23 229h311l-24 -229l211 94l96 -293l-227 -47v-4l155 -170l-250 -182l-114 198h-4l-113 -198l-250 180l154 170v4z" />
<glyph unicode="+" horiz-adv-x="1290" d="M86 455v266h420v457h278v-457h420v-266h-420v-455h-278v455h-420z" />
<glyph unicode="," horiz-adv-x="595" d="M14 -227l154 567h338l-232 -567h-260z" />
<glyph unicode="-" horiz-adv-x="925" d="M141 434v307h643v-307h-643z" />
<glyph unicode="." horiz-adv-x="581" d="M123 0v336h336v-336h-336z" />
<glyph unicode="/" horiz-adv-x="950" d="M66 -86l524 1622h295l-525 -1622h-294z" />
<glyph unicode="0" horiz-adv-x="1286" d="M92 735q0 131 17 240.5t57.5 206t102.5 163.5t157 105.5t217 38.5t217 -38.5t157 -105.5t102.5 -163.5t57.5 -206t17 -240.5t-17 -241t-57.5 -207.5t-102.5 -165.5t-157 -107t-217 -39t-217 39t-157 107t-102.5 165.5t-57.5 207.5t-17 241zM461 735q0 -442 182 -442 t182 442q0 436 -182 436t-182 -436z" />
<glyph unicode="1" horiz-adv-x="1110" d="M57 1094l396 370h309v-1177h313v-287h-975v287h312v631l2 112h-4q-19 -41 -58 -78l-88 -80z" />
<glyph unicode="2" horiz-adv-x="1245" d="M76 158q0 87 22.5 163.5t60.5 135t87.5 110t104 92t108.5 77.5t103.5 71t87.5 66.5t60.5 70t22.5 76.5q0 82 -45.5 116.5t-112.5 34.5q-39 0 -77.5 -17t-65.5 -41.5t-49 -49.5t-33 -42l-10 -17l-248 170q3 7 8.5 18t27 44t47.5 62.5t70 66t94 62.5t120.5 44t148.5 18 q74 0 145 -16.5t136 -52.5t114.5 -87.5t79 -127t29.5 -165.5q0 -87 -35 -164.5t-90.5 -134t-123.5 -106.5t-136 -92.5t-124.5 -82t-93 -83.5t-38.5 -90h369v174h307v-461h-1055q-16 91 -16 158z" />
<glyph unicode="3" horiz-adv-x="1210" d="M70 168l166 256q6 -5 16 -14t43 -31.5t67 -40t83.5 -31.5t97.5 -14q97 0 153 47.5t56 118.5q0 75 -60.5 120.5t-171.5 45.5q-21 0 -71 -4l-76 163l256 326q15 17 32 34.5t27 26.5l10 9v4q-51 -6 -92 -6h-190v-154h-307v440h966v-254l-274 -336q147 -34 234 -141.5 t87 -257.5q0 -96 -34.5 -184t-100 -159.5t-174 -114t-244.5 -42.5q-92 0 -177 20t-141 48.5t-99 56.5t-62 48z" />
<glyph unicode="4" horiz-adv-x="1294" d="M41 354v217l565 893h438v-833h175v-277h-175v-354h-354v354h-649zM397 631h293v354q0 27 4 65t8 62l3 25h-9q-24 -75 -63 -136l-236 -366v-4z" />
<glyph unicode="5" horiz-adv-x="1210" d="M63 162l158 262q6 -5 16.5 -14t44 -31.5t68.5 -40t86.5 -31.5t100.5 -14q96 0 160.5 50t64.5 136q0 79 -61.5 129.5t-180.5 50.5q-60 0 -113 -13.5t-75 -26.5l-23 -13l-190 72l59 786h858v-440h-307v154h-240l-12 -191l-8 -57h4q41 14 131 14q124 0 225 -36t166 -99 t100 -147t35 -181q0 -219 -157.5 -362.5t-411.5 -143.5q-89 0 -173 19.5t-140 46.5t-100 54.5t-64 46.5z" />
<glyph unicode="6" horiz-adv-x="1263" d="M84 659q0 164 46.5 311.5t133.5 264t225.5 185.5t309.5 69q84 0 162 -16t115 -32l36 -16l-94 -297q-96 43 -205 43q-124 0 -203.5 -68.5t-115.5 -182.5h4q32 21 94 36t127 15q108 0 201 -43t153.5 -113t94.5 -158.5t34 -181.5q0 -95 -37.5 -184.5t-103.5 -160 t-166.5 -113t-218.5 -42.5q-94 0 -180.5 26.5t-161.5 82.5t-130.5 135.5t-87.5 192.5t-32 247zM453 553q0 -96 67 -178t156 -82q69 0 113.5 51.5t44.5 132.5q0 39 -13 73.5t-40 65t-77.5 48.5t-117.5 18q-64 0 -98.5 -29.5t-34.5 -99.5z" />
<glyph unicode="7" horiz-adv-x="1163" d="M70 1024v440h1063v-250l-615 -1214h-373l547 1090q14 27 28.5 49.5t21.5 31.5l8 9v4q-46 -6 -107 -6h-266v-154h-307z" />
<glyph unicode="8" horiz-adv-x="1257" d="M80 418q0 199 211 364q-154 121 -154 289q0 79 30 152t88 133.5t154 96.5t216 36q142 0 257 -48.5t183 -142t68 -217.5q0 -178 -152 -346q190 -120 190 -317q0 -83 -35 -161t-100.5 -141.5t-171.5 -102t-237 -38.5q-129 0 -235.5 38t-173 101.5t-102.5 141.5t-36 162z M438 459q0 -77 53 -126.5t140 -49.5q76 0 125 40t49 107q0 32 -15 56.5t-48 46.5t-74 41.5t-106 47.5q-26 11 -40 17q-84 -89 -84 -180zM487 1063q0 -68 58 -110.5t188 -94.5q53 83 53 176q0 72 -41 110t-116 38q-72 0 -107 -32.5t-35 -86.5z" />
<glyph unicode="9" horiz-adv-x="1265" d="M63 989q0 95 37.5 184.5t104 160t167 113t218.5 42.5q94 0 180.5 -26.5t161.5 -82.5t130.5 -135.5t87.5 -192.5t32 -247q0 -128 -28 -248.5t-87 -226t-142.5 -184.5t-201.5 -125t-258 -46q-84 0 -163.5 16t-117.5 32l-37 16l95 297q98 -43 209 -43q127 0 207 70t116 188 h-4q-31 -22 -93.5 -36.5t-129.5 -14.5q-108 0 -201 42.5t-154 111.5t-95 156.5t-34 178.5zM432 989q0 -84 58 -142.5t180 -58.5q63 0 103 33t40 103q0 99 -71 173t-154 74q-66 0 -111 -53.5t-45 -128.5z" />
<glyph unicode=":" horiz-adv-x="622" d="M143 0v336h336v-336h-336zM143 719v336h336v-336h-336z" />
<glyph unicode=";" horiz-adv-x="628" d="M29 -227l133 567h340l-211 -567h-262zM172 719v336h324v-336h-324z" />
<glyph unicode="&#x3c;" horiz-adv-x="1290" d="M109 479v219l1032 457v-297l-676 -268v-4l676 -267v-296z" />
<glyph unicode="=" horiz-adv-x="1290" d="M127 219v266h1036v-266h-1036zM127 690v266h1036v-266h-1036z" />
<glyph unicode="&#x3e;" horiz-adv-x="1290" d="M150 23v296l675 267v4l-675 268v297l1032 -457v-219z" />
<glyph unicode="?" horiz-adv-x="1036" d="M53 1325q6 7 18 18.5t53.5 40.5t87.5 51.5t119 41t150 18.5q70 0 137.5 -16t129 -49.5t108.5 -80t74.5 -112.5t27.5 -143q0 -68 -19.5 -127t-50 -101t-68 -79t-75 -67.5t-68 -59.5t-50 -63t-19.5 -71v-73h-340v102q0 65 24 121t59.5 93t77.5 74t77.5 66t59.5 66.5 t24 77.5q0 52 -43 86.5t-103 34.5q-27 0 -57.5 -9t-53.5 -22t-42.5 -26.5t-30.5 -22.5l-10 -9zM276 0v307h324v-307h-324z" />
<glyph unicode="@" horiz-adv-x="1708" d="M59 492q0 160 60 301t167.5 244.5t264.5 163t342 59.5q148 0 262 -39t182.5 -107.5t103 -156t34.5 -189.5v-406h151v-243h-579q-111 0 -201.5 32t-147 85t-86.5 119t-30 137q0 69 29.5 132.5t85 115t146.5 82t204 30.5h100q0 42 -43.5 72.5t-103.5 44.5t-123 14 q-134 0 -243.5 -71.5t-168.5 -186t-59 -244.5q0 -94 34 -180t97.5 -153.5t163 -107.5t221.5 -40v-266q-197 0 -360.5 58.5t-273 160.5t-169.5 240.5t-60 298.5zM932 494q0 -54 35.5 -93t99.5 -39h80v275h-76q-68 0 -103.5 -39.5t-35.5 -103.5z" />
<glyph unicode="A" horiz-adv-x="1499" d="M20 0v266h121l400 1198h417l400 -1198h121v-266h-613v266h127l-55 195h-377l-55 -195h127v-266h-613zM639 739h219l-76 271q-11 40 -18 78t-8 56l-2 19h-9q-3 -63 -28 -153z" />
<glyph unicode="B" horiz-adv-x="1447" d="M100 0v266h164v932h-164v266h684q96 0 154 -5.5t115 -24.5q118 -40 187 -133t69 -218q0 -98 -45 -182.5t-129 -130.5v-4q83 -25 137 -80t75 -118.5t21 -137.5q0 -158 -94 -267t-232 -143q-87 -20 -219 -20h-723zM631 287h211q40 0 67 12q41 18 64.5 62.5t23.5 97.5 q0 68 -39 109.5t-114 41.5h-213v-323zM631 897h180q64 0 96.5 39.5t32.5 101.5q0 41 -17.5 77t-50.5 50q-35 13 -90 13h-151v-281z" />
<glyph unicode="C" horiz-adv-x="1531" d="M70 735q0 161 60 302t162.5 240t243.5 155.5t300 56.5q60 0 130 -7.5t154 -28t150.5 -52t111.5 -85t45 -120.5v-231h-327v112q0 29 -24.5 50.5t-63.5 33t-79 16.5t-81 5q-182 0 -292.5 -113t-110.5 -313q0 -222 117.5 -347.5t305.5 -125.5q31 0 67 4t78.5 14.5t70.5 32.5 t28 53v113h328v-236q0 -64 -43 -115.5t-108.5 -83t-148.5 -52.5t-157.5 -29.5t-140.5 -8.5q-165 0 -310 59t-247 160.5t-160.5 242t-58.5 298.5z" />
<glyph unicode="D" horiz-adv-x="1613" d="M100 0v266h164v932h-164v266h645q200 0 302 -30q224 -63 357.5 -247.5t133.5 -453.5q0 -249 -118 -429.5t-322 -254.5q-133 -49 -350 -49h-648zM631 287h106q137 0 224 41q94 47 146 152t52 251q0 158 -60.5 265t-164.5 151q-72 31 -197 31h-106v-891z" />
<glyph unicode="E" horiz-adv-x="1349" d="M100 0v266h164v932h-164v266h1129v-432h-307v146h-291v-297h428v-287h-428v-307h315v145h307v-432h-1153z" />
<glyph unicode="F" horiz-adv-x="1243" d="M100 0v266h164v932h-164v266h1092v-432h-307v125h-254v-317h430v-287h-430v-287h184v-266h-715z" />
<glyph unicode="G" horiz-adv-x="1572" d="M70 741q0 163 58.5 302t161 237t248.5 153.5t316 55.5q102 0 205 -19.5t189.5 -54.5t141 -91t54.5 -122v-237h-328v106q0 53 -68.5 82t-173.5 29q-201 0 -313 -110t-112 -314q0 -212 117.5 -343.5t328.5 -131.5q57 0 110.5 8t98.5 33.5t45 64.5v100h-236v267h564v-488 q0 -77 -66.5 -137t-168.5 -92t-203 -48t-189 -16q-167 0 -312 58t-247.5 159.5t-161.5 243.5t-59 305z" />
<glyph unicode="H" horiz-adv-x="1785" d="M100 0v266h164v932h-164v266h695v-266h-164v-328h524v328h-164v266h695v-266h-164v-932h164v-266h-695v266h164v318h-524v-318h164v-266h-695z" />
<glyph unicode="I" horiz-adv-x="894" d="M100 0v266h164v932h-164v266h695v-266h-164v-932h164v-266h-695z" />
<glyph unicode="J" horiz-adv-x="1191" d="M29 430v127h348v-98q0 -36 4 -61.5t16 -51.5t38.5 -39.5t66.5 -13.5q60 0 87 40.5t27 125.5v739h-184v266h694v-266h-143v-747q0 -116 -41.5 -209.5t-110.5 -150t-154 -86.5t-177 -30q-91 0 -173.5 27.5t-150 80.5t-107.5 143t-40 204z" />
<glyph unicode="K" horiz-adv-x="1538" d="M100 0v266h164v932h-164v266h637v-266h-106v-309h123l215 309h-111v266h602v-266h-123l-311 -420v-4q3 -1 7 -3.5t17.5 -13t26.5 -24t30.5 -37.5t31.5 -53l166 -330q23 -47 90 -47h63v-266h-250q-89 0 -133.5 25.5t-73.5 83.5l-219 446q-13 27 -36 37t-66 10h-49v-336 h153v-266h-684z" />
<glyph unicode="L" horiz-adv-x="1298" d="M102 0v266h164v912h-164v286h695v-286h-164v-891h315v215h307v-502h-1153z" />
<glyph unicode="M" horiz-adv-x="2019" d="M72 0v266h159l78 932h-164v266h576l246 -725q14 -40 24 -78t13 -55l4 -18h4q10 61 41 151l245 725h576v-266h-164l78 -932h160v-266h-664v266h146l-35 527q-1 14 -1 30.5t1 37.5q2 41 5 68l3 27h-8q-16 -94 -39 -155l-193 -535h-307l-192 535q-10 27 -20 66t-14 64l-5 25 h-9q1 -11 4 -30q2 -18 4 -62q1 -24 2 -44q0 -15 -1 -27l-35 -527h145v-266h-663z" />
<glyph unicode="N" horiz-adv-x="1759" d="M100 0v266h164v932h-164v266h535l459 -776q16 -26 31 -63.5t23 -61.5l7 -24h8q-12 97 -12 163v496h-172v266h702v-266h-163v-1198h-369l-461 772q-16 26 -31 63.5t-23 62.5l-7 24h-9q13 -98 13 -164v-492h172v-266h-703z" />
<glyph unicode="O" d="M70 741q0 156 58 294t159 238t245 158t308 58t308 -58t245 -158t159 -238t58 -294q0 -159 -58 -300.5t-159 -244t-245 -162t-308 -59.5t-308 59.5t-245 162t-159 244t-58 300.5zM449 741q0 -190 114 -319t277 -129t277 129t114 319q0 183 -114 306.5t-277 123.5 t-277 -123.5t-114 -306.5z" />
<glyph unicode="P" horiz-adv-x="1394" d="M100 0v266h164v932h-164v266h729q164 0 246 -32q129 -50 206 -174.5t77 -286.5q0 -163 -79 -292.5t-210 -174.5q-92 -31 -229 -31h-209v-207h164v-266h-695zM631 760h155q72 0 129 31q78 52 78 180q0 124 -71 174q-50 33 -129 33h-162v-418z" />
<glyph unicode="Q" horiz-adv-x="1693" d="M70 737q0 211 98 382.5t276 270.5t402 99q217 0 392.5 -91t276.5 -258t101 -378q0 -252 -156 -453l158 -127l-203 -227l-153 145q-177 -125 -418 -125q-222 0 -400 101.5t-276 275.5t-98 385zM449 737q0 -188 115 -316t282 -128q101 0 162 39l-193 178l197 223l194 -186 q41 97 41 198q0 179 -116 302.5t-285 123.5t-283 -123t-114 -311z" />
<glyph unicode="R" horiz-adv-x="1515" d="M100 0v266h164v932h-164v266h662q199 0 293 -28q135 -41 214 -147.5t79 -264.5q0 -273 -238 -401v-5q6 -3 16.5 -9t34.5 -28.5t39 -50.5l113 -217q24 -47 94 -47h51v-266h-241q-88 0 -132 24t-75 85l-179 342q-19 36 -44.5 49.5t-81.5 13.5h-74v-248h153v-266h-684z M631 801h166q186 0 186 190q0 123 -80 162q-52 25 -141 25h-131v-377z" />
<glyph unicode="S" horiz-adv-x="1265" d="M82 332v188h328v-108q0 -55 60.5 -87t150.5 -32q89 0 142.5 31t53.5 88q0 24 -8.5 44t-27.5 36.5t-39 29.5t-52 27t-57.5 23.5t-65.5 24t-65 24.5q-69 26 -117.5 49t-103 61t-87.5 81.5t-55 107t-22 141.5q0 95 30 169.5t80 122.5t119 79t142 44t155 13q129 0 240 -30.5 t184.5 -96t73.5 -154.5v-217h-328v92q0 41 -49 64.5t-121 23.5q-158 0 -158 -100q0 -29 15 -54t34.5 -42t59 -36t66.5 -29t79 -29q57 -20 96 -35t89.5 -39t84.5 -47.5t70.5 -58t57.5 -72t35 -87.5t14 -108q0 -97 -32 -175.5t-86 -130.5t-127.5 -87t-153 -50.5t-166.5 -15.5 q-141 0 -261 39t-199 122t-79 196z" />
<glyph unicode="T" horiz-adv-x="1423" d="M47 971v493h1329v-493h-307v207h-174v-912h164v-266h-694v266h163v912h-174v-207h-307z" />
<glyph unicode="U" d="M55 1198v266h695v-266h-164v-639q0 -99 37 -162q29 -50 86.5 -77t132.5 -27q147 0 213 102q39 62 39 164v639h-164v266h694v-266h-164v-639q0 -109 -32 -210t-89 -171q-82 -100 -214.5 -151.5t-284.5 -51.5q-156 0 -287 52t-211 145q-123 140 -123 387v639h-164z" />
<glyph unicode="V" horiz-adv-x="1499" d="M20 1198v266h648v-266h-144l193 -643q10 -32 17 -72t9 -64l2 -24h9q5 88 28 160l193 643h-144v266h648v-266h-123l-418 -1198h-377l-418 1198h-123z" />
<glyph unicode="W" horiz-adv-x="2113" d="M25 1198v266h649v-266h-170l135 -649q6 -32 10.5 -70.5t6.5 -60.5l1 -23h9q6 82 24 154l225 915h283l225 -915q8 -32 14.5 -70.5t8.5 -60.5l2 -23h8q5 82 19 154l135 649h-170v266h649v-266h-123l-291 -1198h-403l-187 750q-8 32 -14 72.5t-8 64.5l-2 24h-8 q-7 -89 -25 -161l-186 -750h-404l-291 1198h-122z" />
<glyph unicode="X" horiz-adv-x="1484" d="M70 0v266h116l361 482l-344 450h-123v266h622v-266h-127l140 -184q13 -16 24.5 -33t16.5 -26l6 -9h4q1 1 2.5 3t3 5t4 7l5 8t6 9.5l7 11t8 12t9.5 12.5l135 184h-123v266h590v-266h-117l-358 -475l352 -457h119v-266h-623v266h132l-148 193q-13 16 -24.5 33.5t-17.5 26.5 l-5 9h-4q-2 0 -7 -8.5t-16 -26.5t-22 -34l-137 -193h127v-266h-594z" />
<glyph unicode="Y" horiz-adv-x="1374" d="M20 1198v266h607v-266h-123l149 -270q10 -18 18.5 -36t11.5 -27l3 -9h4q10 31 33 72l149 270h-122v266h604v-266h-125l-359 -598v-334h164v-266h-694v266h164v334l-359 598h-125z" />
<glyph unicode="Z" horiz-adv-x="1351" d="M100 0v225l625 885q13 18 29.5 35.5t26.5 26.5l10 8v4q-48 -6 -89 -6h-286v-207h-307v493h1124v-221l-627 -889q-13 -18 -29 -35.5t-26 -25.5l-10 -8v-4q47 6 88 6h321v215h307v-502h-1157z" />
<glyph unicode="[" horiz-adv-x="737" d="M168 -195v1731h504v-246h-209v-1239h209v-246h-504z" />
<glyph unicode="\" horiz-adv-x="950" d="M66 1536h294l525 -1622h-295z" />
<glyph unicode="]" horiz-adv-x="737" d="M66 51h208v1239h-208v246h503v-1731h-503v246z" />
<glyph unicode="^" horiz-adv-x="1290" d="M119 494l416 970h219l415 -970h-297l-229 614l-227 -614h-297z" />
<glyph unicode="_" horiz-adv-x="1200" d="M-10 0h1220v-266h-1220v266z" />
<glyph unicode="`" horiz-adv-x="991" d="M190 1866h363l238 -307h-291z" />
<glyph unicode="a" horiz-adv-x="1193" d="M47 301q0 64 23 117t59.5 88.5t87.5 63t102 43.5t108 26t100 13t83 3h64v31q0 60 -42 88.5t-108 28.5q-64 0 -136.5 -25.5t-113.5 -50.5l-41 -25l-122 240q7 6 21 15t59.5 32.5t94 41.5t123 33t148.5 15q229 0 350 -111t121 -319v-348q0 -45 45 -45h78v-256h-305 q-70 0 -105.5 33.5t-35.5 77.5v6l4 33h-4q-4 -7 -11 -19t-34 -42t-59.5 -53t-88.5 -42t-119 -19q-146 0 -246 86.5t-100 239.5zM403 326q0 -42 26.5 -68.5t68.5 -26.5q66 0 123 65.5t57 135.5v25h-33q-99 0 -170.5 -33t-71.5 -98z" />
<glyph unicode="b" horiz-adv-x="1314" d="M2 1208v256h498v-407l-4 -90h4q4 5 11.5 12.5t34.5 26.5t57.5 34t79.5 27t101 12q214 0 345 -153t131 -400t-139 -399t-353 -152q-60 0 -111.5 13.5t-82.5 32.5t-54 37.5t-32 31.5l-9 14h-4q2 -36 2 -69v-35h-332v1208h-143zM489 520q0 -103 54.5 -177.5t152.5 -74.5 q87 0 147 67.5t60 184.5q0 118 -57 189t-150 71q-87 0 -147 -66t-60 -194z" />
<glyph unicode="c" horiz-adv-x="1161" d="M51 524q0 152 72.5 278.5t205.5 201.5t300 75q84 0 162.5 -15t148 -45.5t112 -84t42.5 -123.5v-168h-301v64q0 37 -42.5 57t-107.5 20q-119 0 -177 -67t-58 -180q0 -133 75 -201t191 -68q79 0 164 31.5t153 85.5l119 -248q-84 -76 -207 -119t-252 -43q-118 0 -226 38 t-191.5 107t-133 174t-49.5 230z" />
<glyph unicode="d" horiz-adv-x="1357" d="M55 526q0 251 134.5 402t353.5 151q57 0 105.5 -10.5t77.5 -26t50 -31t29 -25.5l8 -11h4q-2 28 -2 67v166h-143v256h497v-1163q0 -45 45 -45h78v-256h-305q-70 0 -105.5 33.5t-35.5 77.5v6l4 33h-4q-3 -7 -10 -19t-34 -42t-60.5 -53t-93 -42t-128.5 -19 q-210 0 -337.5 152.5t-127.5 398.5zM412 526q0 -115 56.5 -186.5t147.5 -71.5q86 0 147.5 65t61.5 185q0 111 -52.5 186.5t-149.5 75.5q-91 0 -151 -67.5t-60 -186.5z" />
<glyph unicode="e" horiz-adv-x="1150" d="M51 528q0 155 65.5 279.5t191.5 198t292 73.5q154 0 266.5 -67t169 -181t56.5 -262l-9 -106h-669q19 -96 87 -145.5t158 -49.5q44 0 90.5 10.5t82 25t64.5 29.5t44 25l16 11l129 -246q-7 -6 -20 -16t-57.5 -35.5t-93.5 -45t-126 -35.5t-157 -16q-137 0 -249 46.5 t-183 124.5t-109.5 176.5t-38.5 205.5zM422 657h303q0 64 -38 110t-95 46q-71 0 -113 -43.5t-57 -112.5z" />
<glyph unicode="f" horiz-adv-x="845" d="M76 799v256h143v43q0 72 17.5 130.5t46 98.5t69 70t81.5 47t89 27.5t86 14t78 3.5q32 0 63.5 -2t46.5 -4l15 -2v-279q-27 6 -86 6q-21 0 -36 -1t-39 -6.5t-39 -15.5t-26.5 -30.5t-11.5 -48.5v-51h218v-256h-218v-543h156v-256h-643v256h133v543h-143z" />
<glyph unicode="g" horiz-adv-x="1339" d="M57 561q0 103 29.5 194.5t86.5 164.5t149 116t208 43q92 0 179.5 -34.5t128.5 -102.5h4q-2 17 -2 27q0 34 31 60t87 26h320v-256h-80q-21 0 -33 -10.5t-12 -28.5v-664q0 -112 -34.5 -202.5t-92 -149.5t-135.5 -99t-161 -57.5t-173 -17.5q-103 0 -211.5 26.5t-187.5 67.5 l100 258q15 -8 41 -19t104 -29.5t152 -18.5q51 0 92.5 10.5t76.5 34t55 66.5t20 102v34l2 39h-4q-91 -110 -265 -110q-115 0 -207.5 44.5t-149.5 119.5t-87.5 169t-30.5 197zM414 573q0 -106 51 -176.5t151 -70.5q81 0 136 52.5t55 178.5q0 67 -16.5 113.5t-47 70 t-64.5 33.5t-77 10q-91 0 -139.5 -58.5t-48.5 -152.5z" />
<glyph unicode="h" horiz-adv-x="1421" d="M47 1208v256h498v-463l-4 -90h4q44 78 130.5 123t190.5 45q83 0 149.5 -20.5t119.5 -65t81.5 -123t28.5 -186.5v-428h133v-256h-487v618q0 73 -29 106.5t-88 33.5q-111 0 -170 -84t-59 -207v-211h133v-256h-621v256h133v952h-143z" />
<glyph unicode="i" horiz-adv-x="763" d="M76 799v256h497v-799h134v-256h-621v256h133v543h-143zM223 1188v276h346v-276h-346z" />
<glyph unicode="j" horiz-adv-x="696" d="M-39 -143q18 -2 45 -2q24 0 47 2.5t50.5 12t47 24.5t33 42.5t13.5 63.5v799h-146v256h500v-1071q0 -101 -36.5 -178t-90 -119.5t-125 -69.5t-129 -35t-115.5 -8q-25 0 -48.5 1.5t-34.5 2.5l-11 2v277zM201 1188v276h346v-276h-346z" />
<glyph unicode="k" horiz-adv-x="1298" d="M47 1208v256h498v-800h121l110 135h-100v256h549v-256h-129l-183 -221v-5q5 -2 13.5 -8t31 -30t39.5 -56l105 -188q12 -21 29 -28t49 -7h51v-256h-258q-61 0 -93.5 15.5t-58.5 64.5l-162 299q-18 35 -84 35h-30v-158h76v-256h-564v256h133v952h-143z" />
<glyph unicode="l" horiz-adv-x="686" d="M-14 1208v256h497v-1054q0 -77 20 -106.5t79 -29.5l43 2v-280q-50 -6 -107 -6q-45 0 -81.5 3.5t-77.5 14t-73 28t-62.5 48t-50.5 71.5t-32 100.5t-12 133.5v819h-143z" />
<glyph unicode="m" horiz-adv-x="2029" d="M76 799v256h334q71 0 109 -32t38 -87v-35l-2 -24h4q131 202 334 202q205 0 274 -198h4q44 88 137.5 143t211.5 55q70 0 128 -21.5t104.5 -66.5t72.5 -123t26 -184v-428h134v-256h-488v625q0 65 -17.5 99t-64.5 34q-56 0 -96.5 -25t-63 -70.5t-33 -101.5t-10.5 -125v-180 h134v-256h-488v625q0 65 -17.5 99t-64.5 34q-58 0 -99.5 -28.5t-63 -79.5t-31 -108t-9.5 -126v-160h134v-256h-621v256h133v500q0 43 -45 43h-98z" />
<glyph unicode="n" horiz-adv-x="1449" d="M76 799v256h336q71 0 108 -32t37 -87v-35l-2 -24h4q4 8 11.5 21.5t38 48.5t68 61.5t102.5 48.5t139 22q78 0 140 -20.5t112 -65t77 -123t27 -186.5v-428h133v-256h-487v618q0 73 -29 106.5t-90 33.5q-75 0 -128.5 -48.5t-76.5 -117t-23 -146.5v-190h134v-256h-621v256 h133v498q0 45 -45 45h-98z" />
<glyph unicode="o" horiz-adv-x="1298" d="M51 524q0 122 47 226.5t127 176t189.5 112t232.5 40.5q167 0 303 -68.5t216.5 -196.5t80.5 -290q0 -161 -80.5 -287.5t-216 -194t-301.5 -67.5t-301.5 67.5t-216 194t-80.5 287.5zM410 524q0 -115 69.5 -184.5t169.5 -69.5t170 69.5t70 184.5q0 117 -70 188.5t-170 71.5 t-169.5 -71.5t-69.5 -188.5z" />
<glyph unicode="p" horiz-adv-x="1366" d="M53 799v256h326q70 0 102.5 -26.5t32.5 -61.5v-6l-2 -27h4q4 6 12 15.5t36.5 34.5t62.5 44.5t90.5 35t118.5 15.5q214 0 344.5 -153t130.5 -400t-139 -399t-353 -152q-48 0 -93.5 10.5t-75.5 25t-53.5 29.5t-34.5 26l-11 10h-4q4 -37 4 -90v-140h133v-256h-621v256h134 v908q0 45 -45 45h-99zM541 520q0 -103 54.5 -177.5t152.5 -74.5q87 0 146.5 67.5t59.5 184.5q0 118 -56.5 189t-149.5 71q-87 0 -147 -66t-60 -194z" />
<glyph unicode="q" horiz-adv-x="1314" d="M55 528q0 248 134.5 399.5t347.5 151.5q208 0 301 -123h4q-4 23 -4 58v41h331v-1209h134v-256h-621v256h133v158l4 90h-4q-4 -5 -11 -13t-33.5 -28.5t-57 -36t-80 -28.5t-103.5 -13q-214 0 -344.5 153t-130.5 400zM412 528q0 -118 56.5 -189t149.5 -71q87 0 147 66 t60 194q0 103 -54.5 177.5t-152.5 74.5q-87 0 -146.5 -67.5t-59.5 -184.5z" />
<glyph unicode="r" horiz-adv-x="974" d="M80 0v256h143v498q0 45 -45 45h-98v256h334q149 0 149 -135v-56l-4 -53h4q35 111 128 186.5t208 75.5l41 -4v-348q-29 6 -72 6q-144 0 -217 -84t-73 -233v-154h143v-256h-641z" />
<glyph unicode="s" horiz-adv-x="1042" d="M55 231v142h297v-54q0 -75 154 -75q129 0 129 61q0 14 -4 25t-14 20t-20.5 15.5t-31 14t-37 12.5t-47.5 15t-53 17q-46 15 -79 28.5t-75.5 34.5t-72 46t-56 57.5t-40 76.5t-13.5 95q0 72 28 128t72.5 91t105.5 57.5t121.5 31.5t125.5 9q66 0 132.5 -12t129 -37.5t102 -72 t39.5 -107.5v-143h-297v47q0 57 -106 57q-101 0 -101 -53q0 -23 13.5 -40.5t43 -31t55.5 -22t73 -21.5q59 -16 100 -30t94 -41t85.5 -59.5t55.5 -83.5t23 -114q0 -86 -39.5 -153t-107.5 -107t-152.5 -60t-181.5 -20q-74 0 -150.5 16t-145 45.5t-112 80.5t-43.5 114z" />
<glyph unicode="t" horiz-adv-x="835" d="M39 799v256h154v284h344v-284h221v-256h-221v-373q0 -45 19 -76t50.5 -44.5t59.5 -19t59 -5.5l47 2v-287q-39 -6 -96 -6q-41 0 -80.5 3.5t-90.5 14t-94.5 28t-86.5 48t-73.5 71t-49.5 101t-19 133.5v410h-143z" />
<glyph unicode="u" horiz-adv-x="1421" d="M43 799v256h498v-629q0 -73 28.5 -106t87.5 -33q99 0 159.5 96.5t60.5 224.5v191h-144v256h498v-754q0 -45 45 -45h88v-256h-326q-71 0 -108 32t-37 87v28l2 31h-4q-4 -8 -11.5 -22t-37.5 -49t-67 -61.5t-102 -48.5t-141 -22q-73 0 -133 20.5t-109 65.5t-76.5 123.5 t-27.5 186.5v428h-143z" />
<glyph unicode="v" horiz-adv-x="1277" d="M18 799v256h562v-256h-95l121 -381q10 -28 17.5 -62.5t9.5 -55.5l2 -21h8q6 76 29 139l121 381h-95v256h562v-256h-119l-293 -799h-418l-293 799h-119z" />
<glyph unicode="w" horiz-adv-x="1785" d="M20 799v256h562v-256h-105l78 -367q5 -27 9 -62t6 -56l1 -21h9q2 78 16 139l145 623h303l146 -623q6 -27 10 -62t5 -56l1 -21h8q5 78 17 139l78 367h-105v256h561v-256h-120l-201 -799h-410l-119 487q-7 29 -11.5 64t-5.5 55l-1 21h-8q-3 -74 -19 -140l-118 -487h-410 l-201 799h-121z" />
<glyph unicode="x" horiz-adv-x="1191" d="M68 0v256h137l205 276l-195 267h-147v256h370l125 -205q11 -17 22.5 -38t16.5 -34l6 -12h4q20 45 45 84l129 205h336v-256h-125l-192 -258l215 -285h102v-256h-325l-148 225q-11 17 -22.5 38t-16.5 33l-6 13h-4q-20 -45 -45 -84l-139 -225h-348z" />
<glyph unicode="y" horiz-adv-x="1284" d="M18 799v256h580v-256h-102l129 -391q9 -28 15 -62.5t8 -55.5l1 -20h8q10 75 33 138l125 391h-96v256h547v-256h-109l-340 -891q-129 -338 -491 -338q-81 0 -156 20.5t-110 41.5l-35 20l108 252q7 -5 20 -13.5t58.5 -22t95.5 -13.5q136 0 174 86l4 10l-348 848h-119z" />
<glyph unicode="z" horiz-adv-x="1130" d="M84 0v217l463 522q15 16 31 31t25 22l9 7v4q-53 -4 -94 -4h-137v-127h-297v383h942v-219l-455 -521q-15 -16 -31 -31t-25 -22l-9 -6v-4q53 4 94 4h160v127h297v-383h-973z" />
<glyph unicode="{" horiz-adv-x="788" d="M55 524v307q7 0 19 1t42 12t52.5 30.5t41.5 61t19 98.5v180q0 61 15.5 110.5t40 83.5t60 59.5t71.5 40t78 23.5t75 12t68 3l88 -4v-254q-22 4 -51 4q-26 0 -49 -4.5t-47.5 -15t-39 -34t-14.5 -56.5v-240q0 -59 -17.5 -107t-43 -75t-51 -46t-42.5 -26l-18 -6v-4 q7 -2 18.5 -6t41 -23t52.5 -45t41.5 -75t18.5 -109v-260q0 -33 14.5 -56.5t39 -34.5t47.5 -15.5t49 -4.5l51 4v-254q-37 -4 -88 -4q-35 0 -68 3t-75 12t-78 23.5t-71.5 40t-60 59.5t-40 83.5t-15.5 110.5v201q0 55 -18 95.5t-43.5 59t-51 29t-43.5 11.5z" />
<glyph unicode="|" horiz-adv-x="622" d="M164 -338v1980h295v-1980h-295z" />
<glyph unicode="}" horiz-adv-x="788" d="M63 53q23 -4 52 -4q26 0 49 4.5t47 15.5t38.5 34.5t14.5 56.5v260q0 60 17.5 109t43 75.5t51 44.5t42.5 23l18 6v4q-7 2 -18.5 6.5t-41 25t-52.5 46.5t-41.5 74.5t-18.5 107.5v240q0 33 -14.5 56.5t-38.5 34t-47 15t-49 4.5l-52 -4v254q38 4 89 4t98 -6t106 -27 t101.5 -55t72 -97t29.5 -147v-180q0 -57 18 -98.5t43.5 -61t51 -30.5t43.5 -12l18 -1v-307q-7 0 -19 -1t-42 -11.5t-52.5 -29t-41.5 -59t-19 -95.5v-201q0 -84 -29.5 -147t-72 -97t-101.5 -55t-106 -27t-98 -6l-89 4v254z" />
<glyph unicode="~" horiz-adv-x="1288" d="M100 391q0 416 357 416q53 0 98.5 -17t77.5 -41t60 -48t57.5 -41t58.5 -17q51 0 82 40t31 116h272q0 -416 -354 -416q-53 0 -98.5 17t-77.5 41t-60.5 48t-58.5 41t-60 17q-49 0 -79.5 -40.5t-30.5 -115.5h-275z" />
<glyph unicode="&#xa1;" horiz-adv-x="598" d="M115 -410l32 1010h304l32 -1010h-368zM137 745v308h324v-308h-324z" />
<glyph unicode="&#xa2;" horiz-adv-x="1187" d="M61 733q0 214 125.5 376t311.5 204v174h225v-174q139 -31 245 -124.5t150 -227.5l-315 -123q-22 65 -70.5 109t-114.5 44q-76 0 -138 -73t-62 -185q0 -122 58 -190t142 -68q66 0 114.5 44t70.5 110l315 -123q-20 -55 -54 -109.5t-82 -106t-116 -88.5t-143 -48v-179h-225 v179q-186 42 -311.5 203t-125.5 376z" />
<glyph unicode="&#xa3;" horiz-adv-x="1300" d="M80 0v276h164v336h-150v230h150v205q0 195 140.5 318.5t358.5 123.5q68 0 134 -16.5t112.5 -40t83 -47t54.5 -39.5l18 -17l-187 -237q-12 9 -32 22t-74 35t-98 22q-61 0 -102.5 -37t-41.5 -98v-194h318v-230h-318v-325h314v215h307v-502h-1151z" />
<glyph unicode="&#xa5;" horiz-adv-x="1351" d="M66 1464h411l109 -293q22 -60 44 -128t33 -106l11 -38h4q39 137 88 272l108 293h412l-282 -571h190v-197h-287l-49 -100v-57h336v-197h-336v-342h-366v342h-334v197h334v57l-50 100h-284v197h188z" />
<glyph unicode="&#xa7;" horiz-adv-x="1073" d="M66 31l141 235q5 -5 14 -12.5t38.5 -26.5t60 -34t76.5 -27t91 -12q90 0 145.5 45t55.5 147q0 67 -26 158l-140 491h269l151 -559q21 -80 21 -153q0 -182 -123 -296t-351 -114q-76 0 -147.5 16.5t-119.5 39.5t-85 46t-54 39zM113 1079q0 182 122.5 296t350.5 114 q76 0 148 -16.5t119.5 -39.5t84.5 -46t54 -39l18 -17l-152 -221q-4 4 -12.5 10.5t-36 23t-57 29t-74 23t-88.5 10.5q-94 0 -147.5 -38t-53.5 -132q0 -58 21 -137l147 -532h-268l-156 559q-20 76 -20 153z" />
<glyph unicode="&#xa8;" horiz-adv-x="993" d="M113 1579v287h268v-287h-268zM612 1579v287h269v-287h-269z" />
<glyph unicode="&#xa9;" horiz-adv-x="1613" d="M68 733q0 154 58 293.5t156.5 240.5t234.5 160.5t286 59.5q153 0 290.5 -59.5t236.5 -160.5t157.5 -240.5t58.5 -293.5t-58.5 -294.5t-157.5 -242t-237 -161.5t-290 -60q-120 0 -232 38.5t-202.5 108.5t-158.5 163t-105 209t-37 239zM299 733q0 -150 66 -276t182 -198.5 t256 -72.5q143 0 261 72.5t185.5 198t67.5 276.5q0 150 -67.5 274.5t-185.5 196.5t-261 72q-140 0 -256 -72t-182 -197t-66 -274zM455 727q0 161 104.5 272t247.5 111q74 0 136 -24.5t96.5 -59t58.5 -69t32 -59.5l9 -24l-205 -79q-1 4 -3.5 11t-12.5 24t-22 30t-34 24 t-47 11q-48 0 -84.5 -48t-36.5 -120q0 -81 33.5 -124.5t87.5 -43.5q40 0 69.5 25t39.5 50l10 25l205 -79q-3 -10 -9 -25.5t-31.5 -56.5t-59.5 -72t-96 -56.5t-136 -25.5q-143 0 -247.5 111t-104.5 272z" />
<glyph unicode="&#xaa;" horiz-adv-x="854" d="M109 993q0 44 16 80t39.5 58.5t59 39.5t67.5 25.5t71.5 13.5t64 6t52.5 1h10v16q0 74 -96 74q-35 0 -76 -14t-65 -28l-23 -14l-77 154q4 3 12 8.5t35 19.5t57 24.5t78.5 19t99.5 8.5q144 0 220.5 -74t76.5 -203v-409h-221v80h-4q-2 -4 -6 -10.5t-19.5 -22.5t-34 -28.5 t-51.5 -23t-71 -10.5q-84 0 -149.5 58.5t-65.5 150.5zM115 549v174h624v-174h-624zM348 1008q0 -41 47 -41q36 0 64 28t28 64v10h-20q-119 0 -119 -61z" />
<glyph unicode="&#xab;" horiz-adv-x="1335" d="M59 578l336 421h324l-336 -421l336 -420h-324zM592 578l336 421h323l-336 -421l336 -420h-323z" />
<glyph unicode="&#xac;" horiz-adv-x="1214" d="M66 690v266h1036v-686h-277v420h-759z" />
<glyph unicode="&#xad;" horiz-adv-x="925" d="M141 434v307h643v-307h-643z" />
<glyph unicode="&#xae;" horiz-adv-x="1613" d="M68 733q0 154 58 293.5t156.5 240.5t234.5 160.5t286 59.5q153 0 290.5 -59.5t236.5 -160.5t157.5 -240.5t58.5 -293.5t-58.5 -294.5t-157.5 -242t-237 -161.5t-290 -60q-120 0 -232 38.5t-202.5 108.5t-158.5 163t-105 209t-37 239zM299 733q0 -150 66 -276t182 -198.5 t256 -72.5q143 0 261 72.5t185.5 198t67.5 276.5q0 150 -67.5 274.5t-185.5 196.5t-261 72q-140 0 -256 -72t-182 -197t-66 -274zM537 383v711h333q115 0 182.5 -64t67.5 -172q0 -76 -40.5 -123.5t-78.5 -58.5v-4q9 -6 27 -41l129 -248h-242l-100 242h-57v-242h-221z M758 772h55q40 0 61 22.5t21 63.5q0 84 -78 84h-59v-170z" />
<glyph unicode="&#xaf;" horiz-adv-x="993" d="M215 1602v229h563v-229h-563z" />
<glyph unicode="&#xb0;" horiz-adv-x="860" d="M59 1141q0 146 108.5 250t262.5 104q153 0 262 -104.5t109 -249.5q0 -147 -108.5 -250t-262.5 -103q-155 0 -263 102.5t-108 250.5zM317 1143q0 -45 33.5 -77t79.5 -32t79.5 32t33.5 77q0 43 -33.5 74.5t-79.5 31.5t-79.5 -31.5t-33.5 -74.5z" />
<glyph unicode="&#xb1;" horiz-adv-x="1290" d="M86 455v266h420v457h278v-457h420v-266h-420v-455h-278v455h-420zM106 -143h1078v-267h-1078v267z" />
<glyph unicode="&#xb2;" horiz-adv-x="819" d="M55 971q0 70 23 129.5t60 100t81.5 74.5t89 59.5t81.5 48.5t60 49t23 53q0 33 -27 51t-61 18q-24 0 -48 -9.5t-41.5 -23t-31.5 -27t-21 -22.5l-7 -10l-170 146q4 7 13 19.5t41 44t68.5 55.5t97 43.5t126.5 19.5q136 0 228.5 -74t92.5 -203q0 -59 -21.5 -109t-56 -84.5 t-77 -63.5t-85.5 -51.5t-79.5 -43t-61.5 -44.5t-30 -50h225v88h198v-289h-677q-13 68 -13 105z" />
<glyph unicode="&#xb3;" horiz-adv-x="804" d="M57 985l125 174q3 -4 8.5 -9.5t23.5 -21t38.5 -27t52 -21t64.5 -9.5q51 0 80.5 24t29.5 62q0 37 -36 55.5t-91 18.5h-63l-49 117l147 182q9 11 21 23t20 18l8 6v8q-36 -8 -69 -8h-95v-96h-198v288h637v-161l-181 -207q105 -23 157 -84.5t52 -153.5q0 -128 -94.5 -222.5 t-259.5 -94.5q-62 0 -118.5 14.5t-93 35t-64 40.5t-39.5 34z" />
<glyph unicode="&#xb4;" horiz-adv-x="991" d="M201 1559l237 307h363l-309 -307h-291z" />
<glyph unicode="&#xb6;" horiz-adv-x="1351" d="M47 981q0 204 139 343.5t338 139.5h731v-307h-485v-1259h-246v596q-130 0 -239.5 64t-173.5 176t-64 247zM897 -102v1157h246v-1157h-246z" />
<glyph unicode="&#xb7;" horiz-adv-x="606" d="M141 436v336h324v-336h-324z" />
<glyph unicode="&#xb8;" horiz-adv-x="991" d="M285 -307q43 -17 100 -17q98 0 98 54q0 57 -114 57h-52l91 272l147 -34v-15l-39 -112q83 -5 139 -51.5t56 -125.5q0 -51 -25 -91t-66.5 -63t-90.5 -34.5t-103 -11.5q-32 0 -67.5 4.5t-54.5 8.5l-19 5v154z" />
<glyph unicode="&#xb9;" horiz-adv-x="774" d="M39 1513l276 256h222v-702h204v-201h-665v201h203v313q0 17 2 32.5t4 22.5l2 7h-8q-11 -19 -29 -35l-64 -55z" />
<glyph unicode="&#xba;" horiz-adv-x="937" d="M96 1137q0 154 107.5 251t263.5 97q160 0 268.5 -97t108.5 -251t-108.5 -251.5t-266.5 -97.5q-157 0 -265 97.5t-108 251.5zM123 549v174h692v-174h-692zM340 1137q0 -63 37.5 -100.5t91.5 -37.5t91.5 37.5t37.5 100.5q0 62 -37.5 100.5t-91.5 38.5t-91.5 -38.5 t-37.5 -100.5z" />
<glyph unicode="&#xbb;" horiz-adv-x="1335" d="M84 158l336 420l-336 421h324l335 -421l-335 -420h-324zM616 158l336 420l-336 421h324l336 -421l-336 -420h-324z" />
<glyph unicode="&#xbc;" horiz-adv-x="2084" d="M68 1208l276 256h221v-702h205v-201h-666v201h203v313q0 17 2 32.5t4 22.5l2 7h-8q-10 -19 -28 -35l-64 -55zM580 0l688 1464h243l-688 -1464h-243zM1255 188v162l351 553h307v-526h108v-189h-108v-188h-254v188h-404zM1479 377h180v215q0 20 2.5 45.5t4.5 40.5l3 16h-8 q-16 -55 -41 -94l-141 -219v-4z" />
<glyph unicode="&#xbd;" horiz-adv-x="2064" d="M57 1208l277 256h221v-702h205v-201h-666v201h203v313q0 17 2 32.5t4 22.5l2 7h-8q-11 -19 -29 -35l-63 -55zM578 0l688 1464h243l-688 -1464h-243zM1300 104q0 70 23 129.5t60 100t81.5 74.5t89 59.5t81.5 48.5t60 49t23 53q0 33 -27 51.5t-61 18.5q-24 0 -48 -9.5 t-41.5 -23t-31.5 -27t-21 -22.5l-7 -10l-170 145q4 7 13 19.5t41 44t68.5 55.5t97 44t126.5 20q136 0 228.5 -74t92.5 -203q0 -59 -21.5 -109t-56 -84.5t-77 -63.5t-85.5 -51.5t-79.5 -43t-61.5 -44.5t-30 -50h225v88h199v-289h-678q-13 67 -13 104z" />
<glyph unicode="&#xbe;" horiz-adv-x="2082" d="M74 680l125 174q3 -4 8.5 -9.5t23.5 -21t38 -27t51.5 -21t64.5 -9.5q51 0 81 24t30 62q0 37 -36 55.5t-91 18.5h-64l-49 116l147 183q9 11 21.5 23t20.5 18l8 6v8q-37 -8 -70 -8h-94v-96h-199v288h637v-161l-180 -207q105 -23 157 -84.5t52 -153.5q0 -128 -95 -222.5 t-260 -94.5q-62 0 -118.5 14.5t-92.5 34.5t-64 40.5t-40 35.5zM580 0l688 1464h243l-688 -1464h-243zM1255 188v162l351 553h307v-526h108v-189h-108v-188h-254v188h-404zM1479 377h180v215q0 20 2.5 45.5t4.5 40.5l3 16h-8q-16 -55 -41 -94l-141 -219v-4z" />
<glyph unicode="&#xbf;" horiz-adv-x="1036" d="M78 -29q0 68 19.5 127t50 101t68 79t75 67.5t68 59.5t50 63t19.5 71v63h340v-92q0 -65 -24 -121t-59.5 -93t-77.5 -74t-77.5 -66t-59.5 -66.5t-24 -77.5q0 -52 43 -86.5t103 -34.5q44 0 92.5 22.5t75.5 44.5l26 22l197 -240q-6 -7 -18 -18.5t-53.5 -40.5t-87.5 -51.5 t-119 -41t-150 -18.5q-70 0 -137.5 16t-129 49.5t-108.5 80t-74.5 112.5t-27.5 143zM436 748v307h324v-307h-324z" />
<glyph unicode="&#xc0;" horiz-adv-x="1495" d="M18 0v266h121l400 1198h417l400 -1198h121v-266h-613v266h127l-55 195h-377l-55 -195h127v-266h-613zM328 1866h362l238 -307h-291zM637 739h219l-76 271q-11 40 -18 78t-8 56l-2 19h-9q-3 -63 -28 -153z" />
<glyph unicode="&#xc1;" horiz-adv-x="1499" d="M20 0v266h121l400 1198h417l400 -1198h121v-266h-613v266h127l-55 195h-377l-55 -195h127v-266h-613zM561 1559l238 307h362l-309 -307h-291zM639 739h219l-76 271q-11 40 -18 78t-8 56l-2 19h-9q-3 -63 -28 -153z" />
<glyph unicode="&#xc2;" horiz-adv-x="1499" d="M20 0v266h121l400 1198h417l400 -1198h121v-266h-613v266h127l-55 195h-377l-55 -195h127v-266h-613zM371 1559l202 307h345l202 -307h-276l-96 167h-5l-96 -167h-276zM639 739h219l-76 271q-11 40 -18 78t-8 56l-2 19h-9q-3 -63 -28 -153z" />
<glyph unicode="&#xc3;" horiz-adv-x="1499" d="M20 0v266h121l400 1198h417l400 -1198h121v-266h-613v266h127l-55 195h-377l-55 -195h127v-266h-613zM334 1559q0 313 262 313q38 0 71.5 -12.5t57 -31t44 -36.5t42.5 -30.5t43 -12.5q76 0 76 117h229q0 -314 -262 -314q-38 0 -71.5 12.5t-57 31t-44 36.5t-42.5 30.5 t-43 12.5q-76 0 -76 -116h-229zM639 739h219l-76 271q-11 40 -18 78t-8 56l-2 19h-9q-3 -63 -28 -153z" />
<glyph unicode="&#xc4;" horiz-adv-x="1499" d="M20 0v266h121l400 1198h417l400 -1198h121v-266h-613v266h127l-55 195h-377l-55 -195h127v-266h-613zM362 1579v287h269v-287h-269zM639 739h219l-76 271q-11 40 -18 78t-8 56l-2 19h-9q-3 -63 -28 -153zM862 1579v287h268v-287h-268z" />
<glyph unicode="&#xc5;" horiz-adv-x="1499" d="M20 0v266h121l400 1198h417l400 -1198h121v-266h-613v266h127l-55 195h-377l-55 -195h127v-266h-613zM506 1716q0 62 36.5 107t89.5 64.5t113 19.5q97 0 170.5 -49.5t73.5 -141.5q0 -90 -73 -138t-171 -48q-96 0 -167.5 48t-71.5 138zM639 739h219l-76 271q-11 40 -18 78 t-8 56l-2 19h-9q-3 -63 -28 -153zM672 1716q0 -34 20 -55t53 -21q35 0 56.5 21t21.5 55q0 37 -21.5 58.5t-56.5 21.5q-33 0 -53 -22t-20 -58z" />
<glyph unicode="&#xc6;" horiz-adv-x="2039" d="M23 0v266h110l389 932h-143v266h1540v-432h-287v146h-299v-297h418v-287h-418v-307h324v145h287v-432h-1143v266h166v334h-342l-129 -334h139v-266h-612zM729 868h238v310h-117z" />
<glyph unicode="&#xc7;" horiz-adv-x="1531" d="M70 735q0 161 60 302t162.5 240t243.5 155.5t300 56.5q60 0 130 -7.5t154 -28t150.5 -52t111.5 -85t45 -120.5v-231h-327v112q0 29 -24.5 50.5t-63.5 33t-79 16.5t-81 5q-182 0 -292.5 -113t-110.5 -313q0 -222 117.5 -347.5t305.5 -125.5q31 0 67 4t78.5 14.5t70.5 32.5 t28 53v113h328v-236q0 -60 -38.5 -110t-97.5 -81t-136.5 -53t-148 -32t-138.5 -13l-27 -77q83 -5 139 -51.5t56 -125.5q0 -51 -25 -91t-66.5 -63t-90.5 -34.5t-103 -11.5q-32 0 -67.5 4.5t-54.5 8.5l-19 5v154q43 -17 100 -17q98 0 98 54q0 57 -114 57h-52l64 197 q-289 40 -471 249.5t-182 501.5z" />
<glyph unicode="&#xc8;" horiz-adv-x="1349" d="M100 0v266h164v932h-164v266h1129v-432h-307v146h-291v-297h428v-287h-428v-307h315v145h307v-432h-1153zM285 1866h362l238 -307h-291z" />
<glyph unicode="&#xc9;" horiz-adv-x="1349" d="M100 0v266h164v932h-164v266h1129v-432h-307v146h-291v-297h428v-287h-428v-307h315v145h307v-432h-1153zM516 1559l238 307h362l-309 -307h-291z" />
<glyph unicode="&#xca;" horiz-adv-x="1349" d="M100 0v266h164v932h-164v266h1129v-432h-307v146h-291v-297h428v-287h-428v-307h315v145h307v-432h-1153zM326 1559l202 307h344l203 -307h-276l-97 167h-4l-96 -167h-276z" />
<glyph unicode="&#xcb;" horiz-adv-x="1349" d="M100 0v266h164v932h-164v266h1129v-432h-307v146h-291v-297h428v-287h-428v-307h315v145h307v-432h-1153zM317 1579v287h269v-287h-269zM817 1579v287h268v-287h-268z" />
<glyph unicode="&#xcc;" horiz-adv-x="894" d="M33 1866h362l238 -307h-291zM100 0v266h164v932h-164v266h695v-266h-164v-932h164v-266h-695z" />
<glyph unicode="&#xcd;" horiz-adv-x="894" d="M100 0v266h164v932h-164v266h695v-266h-164v-932h164v-266h-695zM264 1559l238 307h362l-309 -307h-291z" />
<glyph unicode="&#xce;" horiz-adv-x="894" d="M74 1559l202 307h345l202 -307h-276l-96 167h-5l-96 -167h-276zM100 0v266h164v932h-164v266h695v-266h-164v-932h164v-266h-695z" />
<glyph unicode="&#xcf;" horiz-adv-x="894" d="M66 1579v287h268v-287h-268zM100 0v266h164v932h-164v266h695v-266h-164v-932h164v-266h-695zM565 1579v287h269v-287h-269z" />
<glyph unicode="&#xd0;" horiz-adv-x="1626" d="M100 0v266h164v316h-143v286h143v330h-164v266h688q352 0 556 -193t204 -536q0 -344 -204.5 -539.5t-555.5 -195.5h-688zM631 287h143q186 0 290.5 115.5t104.5 332.5q0 214 -106.5 328.5t-288.5 114.5h-143v-310h233v-286h-233v-295z" />
<glyph unicode="&#xd1;" horiz-adv-x="1759" d="M100 0v266h164v932h-164v266h535l459 -776q16 -26 31 -63.5t23 -61.5l7 -24h8q-12 97 -12 163v496h-172v266h702v-266h-163v-1198h-369l-461 772q-16 26 -31 63.5t-23 62.5l-7 24h-9q13 -98 13 -164v-492h172v-266h-703zM473 1559q0 313 262 313q38 0 71.5 -12.5t57 -31 t44 -36.5t42.5 -30.5t43 -12.5q76 0 76 117h229q0 -314 -262 -314q-38 0 -71.5 12.5t-57 31t-44 36.5t-42.5 30.5t-43 12.5q-76 0 -76 -116h-229z" />
<glyph unicode="&#xd2;" d="M70 741q0 156 58 294t159 238t245 158t308 58t308 -58t245 -158t159 -238t58 -294q0 -159 -58 -300.5t-159 -244t-245 -162t-308 -59.5t-308 59.5t-245 162t-159 244t-58 300.5zM424 1866h362l238 -307h-291zM449 741q0 -190 114 -319t277 -129t277 129t114 319 q0 183 -114 306.5t-277 123.5t-277 -123.5t-114 -306.5z" />
<glyph unicode="&#xd3;" d="M70 741q0 156 58 294t159 238t245 158t308 58t308 -58t245 -158t159 -238t58 -294q0 -159 -58 -300.5t-159 -244t-245 -162t-308 -59.5t-308 59.5t-245 162t-159 244t-58 300.5zM449 741q0 -190 114 -319t277 -129t277 129t114 319q0 183 -114 306.5t-277 123.5 t-277 -123.5t-114 -306.5zM655 1559l238 307h362l-309 -307h-291z" />
<glyph unicode="&#xd4;" d="M70 741q0 156 58 294t159 238t245 158t308 58t308 -58t245 -158t159 -238t58 -294q0 -159 -58 -300.5t-159 -244t-245 -162t-308 -59.5t-308 59.5t-245 162t-159 244t-58 300.5zM449 741q0 -190 114 -319t277 -129t277 129t114 319q0 183 -114 306.5t-277 123.5 t-277 -123.5t-114 -306.5zM465 1559l203 307h344l202 -307h-276l-96 167h-4l-97 -167h-276z" />
<glyph unicode="&#xd5;" d="M70 741q0 156 58 294t159 238t245 158t308 58t308 -58t245 -158t159 -238t58 -294q0 -159 -58 -300.5t-159 -244t-245 -162t-308 -59.5t-308 59.5t-245 162t-159 244t-58 300.5zM428 1559q0 313 262 313q38 0 71.5 -12.5t57 -31t44 -36.5t42.5 -30.5t43 -12.5 q76 0 76 117h229q0 -314 -262 -314q-38 0 -71.5 12.5t-57 31t-44 36.5t-42.5 30.5t-43 12.5q-76 0 -76 -116h-229zM449 741q0 -190 114 -319t277 -129t277 129t114 319q0 183 -114 306.5t-277 123.5t-277 -123.5t-114 -306.5z" />
<glyph unicode="&#xd6;" d="M70 741q0 156 58 294t159 238t245 158t308 58t308 -58t245 -158t159 -238t58 -294q0 -159 -58 -300.5t-159 -244t-245 -162t-308 -59.5t-308 59.5t-245 162t-159 244t-58 300.5zM449 741q0 -190 114 -319t277 -129t277 129t114 319q0 183 -114 306.5t-277 123.5 t-277 -123.5t-114 -306.5zM457 1579v287h268v-287h-268zM956 1579v287h269v-287h-269z" />
<glyph unicode="&#xd7;" horiz-adv-x="1290" d="M88 188l373 400l-373 401l188 189l367 -394l369 394l188 -189l-375 -401l375 -400l-188 -188l-369 393l-367 -393z" />
<glyph unicode="&#xd8;" horiz-adv-x="1671" d="M70 741q0 155 58 293.5t158.5 238.5t243.5 158t306 58q199 0 360 -82l84 115l143 -97l-82 -112q123 -104 192 -252.5t69 -319.5q0 -213 -98.5 -388t-274.5 -276.5t-393 -101.5q-212 0 -390 99l-94 -131l-143 98l98 135q-114 105 -175.5 250.5t-61.5 314.5zM440 741 q0 -157 80 -270l475 655q-75 35 -159 35q-166 0 -281 -119.5t-115 -300.5zM647 352q87 -49 189 -49q166 0 280.5 124.5t114.5 313.5q0 165 -98 281z" />
<glyph unicode="&#xd9;" d="M55 1198v266h695v-266h-164v-639q0 -99 37 -162q29 -50 86.5 -77t132.5 -27q147 0 213 102q39 62 39 164v639h-164v266h694v-266h-164v-639q0 -109 -32 -210t-89 -171q-82 -100 -214.5 -151.5t-284.5 -51.5q-156 0 -287 52t-211 145q-123 140 -123 387v639h-164z M424 1866h362l238 -307h-291z" />
<glyph unicode="&#xda;" d="M55 1198v266h695v-266h-164v-639q0 -99 37 -162q29 -50 86.5 -77t132.5 -27q147 0 213 102q39 62 39 164v639h-164v266h694v-266h-164v-639q0 -109 -32 -210t-89 -171q-82 -100 -214.5 -151.5t-284.5 -51.5q-156 0 -287 52t-211 145q-123 140 -123 387v639h-164z M655 1559l238 307h362l-309 -307h-291z" />
<glyph unicode="&#xdb;" d="M55 1198v266h695v-266h-164v-639q0 -99 37 -162q29 -50 86.5 -77t132.5 -27q147 0 213 102q39 62 39 164v639h-164v266h694v-266h-164v-639q0 -109 -32 -210t-89 -171q-82 -100 -214.5 -151.5t-284.5 -51.5q-156 0 -287 52t-211 145q-123 140 -123 387v639h-164z M465 1559l203 307h344l202 -307h-276l-96 167h-4l-97 -167h-276z" />
<glyph unicode="&#xdc;" d="M55 1198v266h695v-266h-164v-639q0 -99 37 -162q29 -50 86.5 -77t132.5 -27q147 0 213 102q39 62 39 164v639h-164v266h694v-266h-164v-639q0 -109 -32 -210t-89 -171q-82 -100 -214.5 -151.5t-284.5 -51.5q-156 0 -287 52t-211 145q-123 140 -123 387v639h-164z M457 1579v287h268v-287h-268zM956 1579v287h269v-287h-269z" />
<glyph unicode="&#xdd;" horiz-adv-x="1374" d="M20 1198v266h607v-266h-123l149 -270q10 -18 18.5 -36t11.5 -27l3 -9h4q10 31 33 72l149 270h-122v266h604v-266h-125l-359 -598v-334h164v-266h-694v266h164v334l-359 598h-125zM508 1559l237 307h363l-309 -307h-291z" />
<glyph unicode="&#xde;" horiz-adv-x="1376" d="M100 0v266h164v932h-164v266h695v-266h-172v-94h286q211 0 326 -96.5t115 -264.5q0 -173 -115 -273.5t-326 -100.5h-286v-103h172v-266h-695zM623 635h190q92 0 132 26t40 82q0 52 -38 73.5t-128 21.5h-196v-203z" />
<glyph unicode="&#xdf;" horiz-adv-x="1361" d="M57 0v256h133v823q0 98 44 177.5t118 129.5t167 76.5t194 26.5q93 0 178.5 -28.5t151 -79t104.5 -125.5t39 -162q0 -46 -15 -86.5t-37 -69t-44 -55t-37 -56.5t-15 -61q0 -27 28.5 -56.5t69 -61.5t80.5 -71t68.5 -100t28.5 -133q0 -87 -32.5 -156.5t-88.5 -113t-126.5 -66 t-150.5 -22.5t-143.5 10.5t-86.5 21.5l-23 11v290q94 -38 194 -38q102 0 102 86q0 25 -28.5 54t-69 60t-81 67.5t-69 91.5t-28.5 118q0 51 23 100t50.5 81t50.5 71.5t23 74.5q0 48 -34 78.5t-93 30.5q-157 0 -157 -139v-1055h-488z" />
<glyph unicode="&#xe0;" horiz-adv-x="1193" d="M47 301q0 64 23 117t59.5 88.5t87.5 63t102 43.5t108 26t100 13t83 3h64v31q0 60 -42 88.5t-108 28.5q-64 0 -136.5 -25.5t-113.5 -50.5l-41 -25l-122 240q7 6 21 15t59.5 32.5t94 41.5t123 33t148.5 15q229 0 350 -111t121 -319v-348q0 -45 45 -45h78v-256h-305 q-70 0 -105.5 33.5t-35.5 77.5v6l4 33h-4q-4 -7 -11 -19t-34 -42t-59.5 -53t-88.5 -42t-119 -19q-146 0 -246 86.5t-100 239.5zM156 1464h362l238 -307h-291zM403 326q0 -42 26.5 -68.5t68.5 -26.5q66 0 123 65.5t57 135.5v25h-33q-99 0 -170.5 -33t-71.5 -98z" />
<glyph unicode="&#xe1;" horiz-adv-x="1193" d="M47 301q0 64 23 117t59.5 88.5t87.5 63t102 43.5t108 26t100 13t83 3h64v31q0 60 -42 88.5t-108 28.5q-64 0 -136.5 -25.5t-113.5 -50.5l-41 -25l-122 240q7 6 21 15t59.5 32.5t94 41.5t123 33t148.5 15q229 0 350 -111t121 -319v-348q0 -45 45 -45h78v-256h-305 q-70 0 -105.5 33.5t-35.5 77.5v6l4 33h-4q-4 -7 -11 -19t-34 -42t-59.5 -53t-88.5 -42t-119 -19q-146 0 -246 86.5t-100 239.5zM387 1157l238 307h362l-309 -307h-291zM403 326q0 -42 26.5 -68.5t68.5 -26.5q66 0 123 65.5t57 135.5v25h-33q-99 0 -170.5 -33t-71.5 -98z" />
<glyph unicode="&#xe2;" horiz-adv-x="1193" d="M47 301q0 64 23 117t59.5 88.5t87.5 63t102 43.5t108 26t100 13t83 3h64v31q0 60 -42 88.5t-108 28.5q-64 0 -136.5 -25.5t-113.5 -50.5l-41 -25l-122 240q7 6 21 15t59.5 32.5t94 41.5t123 33t148.5 15q229 0 350 -111t121 -319v-348q0 -45 45 -45h78v-256h-305 q-70 0 -105.5 33.5t-35.5 77.5v6l4 33h-4q-4 -7 -11 -19t-34 -42t-59.5 -53t-88.5 -42t-119 -19q-146 0 -246 86.5t-100 239.5zM197 1157l202 307h344l203 -307h-276l-97 168h-4l-96 -168h-276zM403 326q0 -42 26.5 -68.5t68.5 -26.5q66 0 123 65.5t57 135.5v25h-33 q-99 0 -170.5 -33t-71.5 -98z" />
<glyph unicode="&#xe3;" horiz-adv-x="1193" d="M47 301q0 64 23 117t59.5 88.5t87.5 63t102 43.5t108 26t100 13t83 3h64v31q0 60 -42 88.5t-108 28.5q-64 0 -136.5 -25.5t-113.5 -50.5l-41 -25l-122 240q7 6 21 15t59.5 32.5t94 41.5t123 33t148.5 15q229 0 350 -111t121 -319v-348q0 -45 45 -45h78v-256h-305 q-70 0 -105.5 33.5t-35.5 77.5v6l4 33h-4q-4 -7 -11 -19t-34 -42t-59.5 -53t-88.5 -42t-119 -19q-146 0 -246 86.5t-100 239.5zM160 1157q0 313 262 313q46 0 87 -19t64.5 -42t52.5 -42t54 -19q76 0 76 116h229q0 -313 -262 -313q-38 0 -71.5 12.5t-57 30.5t-44 36.5 t-42.5 31t-43 12.5q-76 0 -76 -117h-229zM403 326q0 -42 26.5 -68.5t68.5 -26.5q66 0 123 65.5t57 135.5v25h-33q-99 0 -170.5 -33t-71.5 -98z" />
<glyph unicode="&#xe4;" horiz-adv-x="1193" d="M47 301q0 64 23 117t59.5 88.5t87.5 63t102 43.5t108 26t100 13t83 3h64v31q0 60 -42 88.5t-108 28.5q-64 0 -136.5 -25.5t-113.5 -50.5l-41 -25l-122 240q7 6 21 15t59.5 32.5t94 41.5t123 33t148.5 15q229 0 350 -111t121 -319v-348q0 -45 45 -45h78v-256h-305 q-70 0 -105.5 33.5t-35.5 77.5v6l4 33h-4q-4 -7 -11 -19t-34 -42t-59.5 -53t-88.5 -42t-119 -19q-146 0 -246 86.5t-100 239.5zM188 1178v286h269v-286h-269zM403 326q0 -42 26.5 -68.5t68.5 -26.5q66 0 123 65.5t57 135.5v25h-33q-99 0 -170.5 -33t-71.5 -98zM688 1178v286 h268v-286h-268z" />
<glyph unicode="&#xe5;" horiz-adv-x="1193" d="M47 301q0 64 23 117t59.5 88.5t87.5 63t102 43.5t108 26t100 13t83 3h64v31q0 60 -42 88.5t-108 28.5q-64 0 -136.5 -25.5t-113.5 -50.5l-41 -25l-122 240q7 6 21 15t59.5 32.5t94 41.5t123 33t148.5 15q229 0 350 -111t121 -319v-348q0 -45 45 -45h78v-256h-305 q-70 0 -105.5 33.5t-35.5 77.5v6l4 33h-4q-4 -7 -11 -19t-34 -42t-59.5 -53t-88.5 -42t-119 -19q-146 0 -246 86.5t-100 239.5zM332 1315q0 62 36.5 106.5t89 64t113.5 19.5q62 0 115.5 -19.5t91 -64t37.5 -106.5q0 -90 -73 -138.5t-171 -48.5q-96 0 -167.5 48.5 t-71.5 138.5zM403 326q0 -42 26.5 -68.5t68.5 -26.5q66 0 123 65.5t57 135.5v25h-33q-99 0 -170.5 -33t-71.5 -98zM498 1315q0 -34 20 -55t53 -21q35 0 56.5 21t21.5 55q0 37 -21.5 58.5t-56.5 21.5q-33 0 -53 -22t-20 -58z" />
<glyph unicode="&#xe6;" horiz-adv-x="1738" d="M43 311q0 64 24.5 116.5t63.5 87t94.5 61t109.5 41.5t116.5 24t108 11.5t91.5 2.5h19v21q0 73 -37 100t-107 27q-64 0 -138 -25.5t-116 -50.5l-43 -25l-123 240q8 6 22 15t60.5 32.5t96.5 41.5t125 33t149 15q112 0 186 -26t129 -78h5q126 104 315 104q222 0 354.5 -146 t132.5 -374l-8 -100h-665q19 -100 86.5 -149.5t158.5 -49.5q43 0 88.5 11t80 26t63.5 30.5t44 26.5l15 11l131 -236q-7 -6 -20 -16.5t-57.5 -37t-93 -47t-124.5 -37t-155 -16.5q-273 0 -424 185h-4q-10 -17 -27.5 -37.5t-52 -47t-76.5 -47.5t-105.5 -36t-134.5 -15 q-152 0 -255 91.5t-103 242.5zM389 326q0 -38 26.5 -63t71.5 -25q71 0 129 62t58 132v25h-33q-63 0 -118 -12.5t-94.5 -43.5t-39.5 -75zM1016 655h309q0 60 -37.5 109t-93.5 49q-139 0 -178 -158z" />
<glyph unicode="&#xe7;" horiz-adv-x="1161" d="M51 524q0 152 72.5 278.5t205.5 201.5t300 75q84 0 162.5 -15t148 -45.5t112 -84t42.5 -123.5v-168h-301v64q0 37 -42.5 57t-107.5 20q-119 0 -177 -67t-58 -180q0 -133 75 -201t191 -68q79 0 164 31.5t153 85.5l119 -248q-80 -74 -198.5 -116.5t-243.5 -45.5l-27 -77 q83 -5 139 -51.5t56 -125.5q0 -51 -25 -91t-66.5 -63t-90.5 -34.5t-103 -11.5q-32 0 -67.5 4.5t-54.5 8.5l-19 5v154q43 -17 100 -17q98 0 98 54q0 57 -114 57h-52l66 203q-198 40 -327.5 182t-129.5 352z" />
<glyph unicode="&#xe8;" horiz-adv-x="1150" d="M51 528q0 155 65.5 279.5t191.5 198t292 73.5q154 0 266.5 -67t169 -181t56.5 -262l-9 -106h-669q19 -96 87 -145.5t158 -49.5q44 0 90.5 10.5t82 25t64.5 29.5t44 25l16 11l129 -246q-7 -6 -20 -16t-57.5 -35.5t-93.5 -45t-126 -35.5t-157 -16q-137 0 -249 46.5 t-183 124.5t-109.5 176.5t-38.5 205.5zM180 1464h363l237 -307h-291zM422 657h303q0 64 -38 110t-95 46q-71 0 -113 -43.5t-57 -112.5z" />
<glyph unicode="&#xe9;" horiz-adv-x="1150" d="M51 528q0 155 65.5 279.5t191.5 198t292 73.5q154 0 266.5 -67t169 -181t56.5 -262l-9 -106h-669q19 -96 87 -145.5t158 -49.5q44 0 90.5 10.5t82 25t64.5 29.5t44 25l16 11l129 -246q-7 -6 -20 -16t-57.5 -35.5t-93.5 -45t-126 -35.5t-157 -16q-137 0 -249 46.5 t-183 124.5t-109.5 176.5t-38.5 205.5zM412 1157l237 307h363l-310 -307h-290zM422 657h303q0 64 -38 110t-95 46q-71 0 -113 -43.5t-57 -112.5z" />
<glyph unicode="&#xea;" horiz-adv-x="1150" d="M51 528q0 155 65.5 279.5t191.5 198t292 73.5q154 0 266.5 -67t169 -181t56.5 -262l-9 -106h-669q19 -96 87 -145.5t158 -49.5q44 0 90.5 10.5t82 25t64.5 29.5t44 25l16 11l129 -246q-7 -6 -20 -16t-57.5 -35.5t-93.5 -45t-126 -35.5t-157 -16q-137 0 -249 46.5 t-183 124.5t-109.5 176.5t-38.5 205.5zM221 1157l203 307h344l203 -307h-277l-96 168h-4l-96 -168h-277zM422 657h303q0 64 -38 110t-95 46q-71 0 -113 -43.5t-57 -112.5z" />
<glyph unicode="&#xeb;" horiz-adv-x="1150" d="M51 528q0 155 65.5 279.5t191.5 198t292 73.5q154 0 266.5 -67t169 -181t56.5 -262l-9 -106h-669q19 -96 87 -145.5t158 -49.5q44 0 90.5 10.5t82 25t64.5 29.5t44 25l16 11l129 -246q-7 -6 -20 -16t-57.5 -35.5t-93.5 -45t-126 -35.5t-157 -16q-137 0 -249 46.5 t-183 124.5t-109.5 176.5t-38.5 205.5zM213 1178v286h268v-286h-268zM422 657h303q0 64 -38 110t-95 46q-71 0 -113 -43.5t-57 -112.5zM713 1178v286h268v-286h-268z" />
<glyph unicode="&#xec;" horiz-adv-x="763" d="M-23 1464h363l238 -307h-291zM76 799v256h497v-799h134v-256h-621v256h133v543h-143z" />
<glyph unicode="&#xed;" horiz-adv-x="763" d="M76 799v256h497v-799h134v-256h-621v256h133v543h-143zM209 1157l237 307h363l-309 -307h-291z" />
<glyph unicode="&#xee;" horiz-adv-x="763" d="M18 1157l203 307h344l203 -307h-276l-97 168h-4l-96 -168h-277zM76 799v256h497v-799h134v-256h-621v256h133v543h-143z" />
<glyph unicode="&#xef;" horiz-adv-x="763" d="M31 1178v286h268v-286h-268zM76 799v256h497v-799h134v-256h-621v256h133v543h-143zM469 1178v286h268v-286h-268z" />
<glyph unicode="&#xf0;" horiz-adv-x="1210" d="M53 494q0 121 55.5 223.5t165.5 167.5t252 65q36 0 71.5 -4.5t52.5 -9.5l18 -4h4q-24 35 -67.5 76.5t-86.5 66.5l-383 -155v153l215 88q-138 59 -221 74l98 276q132 -28 265.5 -79.5t236.5 -114.5l303 129v-154l-176 -75q126 -121 198 -284.5t72 -352.5q0 -89 -17.5 -172 t-59 -163t-103.5 -139t-158 -95t-215 -36q-121 0 -221 43.5t-164.5 116.5t-99.5 165.5t-35 193.5zM410 483q0 -91 41.5 -152t128.5 -61q67 0 111.5 37.5t61.5 89.5t17 115q0 75 -45 121.5t-125 46.5q-92 0 -141 -56.5t-49 -140.5z" />
<glyph unicode="&#xf1;" horiz-adv-x="1449" d="M76 799v256h336q71 0 108 -32t37 -87v-35l-2 -24h4q4 8 11.5 21.5t38 48.5t68 61.5t102.5 48.5t139 22q78 0 140 -20.5t112 -65t77 -123t27 -186.5v-428h133v-256h-487v618q0 73 -29 106.5t-90 33.5q-75 0 -128.5 -48.5t-76.5 -117t-23 -146.5v-190h134v-256h-621v256 h133v498q0 45 -45 45h-98zM342 1157q0 313 262 313q46 0 87 -19t64.5 -42t52.5 -42t54 -19q76 0 76 116h229q0 -313 -262 -313q-38 0 -71.5 12.5t-57 30.5t-44 36.5t-42.5 31t-43 12.5q-76 0 -76 -117h-229z" />
<glyph unicode="&#xf2;" horiz-adv-x="1298" d="M51 524q0 122 47 226.5t127 176t189.5 112t232.5 40.5q167 0 303 -68.5t216.5 -196.5t80.5 -290q0 -161 -80.5 -287.5t-216 -194t-301.5 -67.5t-301.5 67.5t-216 194t-80.5 287.5zM233 1464h363l238 -307h-291zM410 524q0 -115 69.5 -184.5t169.5 -69.5t170 69.5 t70 184.5q0 117 -70 188.5t-170 71.5t-169.5 -71.5t-69.5 -188.5z" />
<glyph unicode="&#xf3;" horiz-adv-x="1298" d="M51 524q0 122 47 226.5t127 176t189.5 112t232.5 40.5q167 0 303 -68.5t216.5 -196.5t80.5 -290q0 -161 -80.5 -287.5t-216 -194t-301.5 -67.5t-301.5 67.5t-216 194t-80.5 287.5zM410 524q0 -115 69.5 -184.5t169.5 -69.5t170 69.5t70 184.5q0 117 -70 188.5t-170 71.5 t-169.5 -71.5t-69.5 -188.5zM465 1157l237 307h363l-309 -307h-291z" />
<glyph unicode="&#xf4;" horiz-adv-x="1298" d="M51 524q0 122 47 226.5t127 176t189.5 112t232.5 40.5q167 0 303 -68.5t216.5 -196.5t80.5 -290q0 -161 -80.5 -287.5t-216 -194t-301.5 -67.5t-301.5 67.5t-216 194t-80.5 287.5zM274 1157l203 307h344l203 -307h-276l-97 168h-4l-96 -168h-277zM410 524 q0 -115 69.5 -184.5t169.5 -69.5t170 69.5t70 184.5q0 117 -70 188.5t-170 71.5t-169.5 -71.5t-69.5 -188.5z" />
<glyph unicode="&#xf5;" horiz-adv-x="1298" d="M51 524q0 122 47 226.5t127 176t189.5 112t232.5 40.5q167 0 303 -68.5t216.5 -196.5t80.5 -290q0 -161 -80.5 -287.5t-216 -194t-301.5 -67.5t-301.5 67.5t-216 194t-80.5 287.5zM238 1157q0 313 262 313q46 0 87 -19t64.5 -42t52.5 -42t54 -19q76 0 76 116h229 q0 -313 -262 -313q-38 0 -71.5 12.5t-57 30.5t-44 36.5t-42.5 31t-43 12.5q-76 0 -76 -117h-229zM410 524q0 -115 69.5 -184.5t169.5 -69.5t170 69.5t70 184.5q0 117 -70 188.5t-170 71.5t-169.5 -71.5t-69.5 -188.5z" />
<glyph unicode="&#xf6;" horiz-adv-x="1298" d="M51 524q0 122 47 226.5t127 176t189.5 112t232.5 40.5q167 0 303 -68.5t216.5 -196.5t80.5 -290q0 -161 -80.5 -287.5t-216 -194t-301.5 -67.5t-301.5 67.5t-216 194t-80.5 287.5zM266 1178v286h269v-286h-269zM410 524q0 -115 69.5 -184.5t169.5 -69.5t170 69.5 t70 184.5q0 117 -70 188.5t-170 71.5t-169.5 -71.5t-69.5 -188.5zM766 1178v286h268v-286h-268z" />
<glyph unicode="&#xf7;" horiz-adv-x="1290" d="M86 455v266h1118v-266h-1118zM496 0v276h299v-276h-299zM496 901v277h299v-277h-299z" />
<glyph unicode="&#xf8;" horiz-adv-x="1296" d="M51 524q0 122 47 226.5t127 176t189.5 112t232.5 40.5q141 0 275 -57l86 119l122 -84l-81 -113q92 -76 145 -184.5t53 -235.5q0 -161 -80.5 -287.5t-216 -194t-301.5 -67.5q-133 0 -260 52l-90 -125l-123 86l80 112q-95 74 -150 184t-55 240zM410 524q0 -79 45 -149 l282 391q-61 18 -88 18q-100 0 -169.5 -71.5t-69.5 -188.5zM573 283q50 -13 76 -13q100 0 170 69.5t70 184.5q0 66 -39 142z" />
<glyph unicode="&#xf9;" horiz-adv-x="1421" d="M43 799v256h498v-629q0 -73 28.5 -106t87.5 -33q99 0 159.5 96.5t60.5 224.5v191h-144v256h498v-754q0 -45 45 -45h88v-256h-326q-71 0 -108 32t-37 87v28l2 31h-4q-4 -8 -11.5 -22t-37.5 -49t-67 -61.5t-102 -48.5t-141 -22q-73 0 -133 20.5t-109 65.5t-76.5 123.5 t-27.5 186.5v428h-143zM260 1464h363l237 -307h-291z" />
<glyph unicode="&#xfa;" horiz-adv-x="1421" d="M43 799v256h498v-629q0 -73 28.5 -106t87.5 -33q99 0 159.5 96.5t60.5 224.5v191h-144v256h498v-754q0 -45 45 -45h88v-256h-326q-71 0 -108 32t-37 87v28l2 31h-4q-4 -8 -11.5 -22t-37.5 -49t-67 -61.5t-102 -48.5t-141 -22q-73 0 -133 20.5t-109 65.5t-76.5 123.5 t-27.5 186.5v428h-143zM492 1157l237 307h363l-310 -307h-290z" />
<glyph unicode="&#xfb;" horiz-adv-x="1421" d="M43 799v256h498v-629q0 -73 28.5 -106t87.5 -33q99 0 159.5 96.5t60.5 224.5v191h-144v256h498v-754q0 -45 45 -45h88v-256h-326q-71 0 -108 32t-37 87v28l2 31h-4q-4 -8 -11.5 -22t-37.5 -49t-67 -61.5t-102 -48.5t-141 -22q-73 0 -133 20.5t-109 65.5t-76.5 123.5 t-27.5 186.5v428h-143zM301 1157l203 307h344l203 -307h-277l-96 168h-4l-96 -168h-277z" />
<glyph unicode="&#xfc;" horiz-adv-x="1421" d="M43 799v256h498v-629q0 -73 28.5 -106t87.5 -33q99 0 159.5 96.5t60.5 224.5v191h-144v256h498v-754q0 -45 45 -45h88v-256h-326q-71 0 -108 32t-37 87v28l2 31h-4q-4 -8 -11.5 -22t-37.5 -49t-67 -61.5t-102 -48.5t-141 -22q-73 0 -133 20.5t-109 65.5t-76.5 123.5 t-27.5 186.5v428h-143zM293 1178v286h268v-286h-268zM793 1178v286h268v-286h-268z" />
<glyph unicode="&#xfd;" horiz-adv-x="1284" d="M18 799v256h580v-256h-102l129 -391q9 -28 15 -62.5t8 -55.5l1 -20h8q10 75 33 138l125 391h-96v256h547v-256h-109l-340 -891q-129 -338 -491 -338q-81 0 -156 20.5t-110 41.5l-35 20l108 252q7 -5 20 -13.5t58.5 -22t95.5 -13.5q136 0 174 86l4 10l-348 848h-119z M465 1157l237 307h363l-309 -307h-291z" />
<glyph unicode="&#xfe;" horiz-adv-x="1310" d="M0 1208v256h500v-413l-4 -90h4q3 5 9.5 13t31 28t53 35.5t77 28.5t103.5 13q142 0 253 -73t170.5 -198t59.5 -280t-59.5 -280.5t-170.5 -199t-253 -73.5q-56 0 -104.5 11t-78.5 27.5t-51.5 32.5t-30.5 27l-9 11h-4q4 -37 4 -90v-148h133v-256h-621v256h133v1362h-145z M489 526q0 -256 213 -256q90 0 144.5 75t54.5 183t-54.5 182t-144.5 74q-213 0 -213 -258z" />
<glyph unicode="&#xff;" horiz-adv-x="1284" d="M18 799v256h580v-256h-102l129 -391q9 -28 15 -62.5t8 -55.5l1 -20h8q10 75 33 138l125 391h-96v256h547v-256h-109l-340 -891q-129 -338 -491 -338q-81 0 -156 20.5t-110 41.5l-35 20l108 252q7 -5 20 -13.5t58.5 -22t95.5 -13.5q136 0 174 86l4 10l-348 848h-119z M266 1178v286h269v-286h-269zM766 1178v286h268v-286h-268z" />
<glyph unicode="&#x152;" horiz-adv-x="2074" d="M66 735q0 206 106 378t286.5 270t393.5 98q76 0 153.5 -8.5t116.5 -8.5h832v-432h-287v146h-301v-299h418v-285h-418v-307h326v145h286v-432h-856q-39 0 -116.5 -8t-153.5 -8q-213 0 -393.5 99.5t-286.5 272.5t-106 379zM436 735q0 -190 121 -323t295 -133q40 0 77 3.5 t53 7.5l17 3v878q-57 15 -147 15q-174 0 -295 -131.5t-121 -319.5z" />
<glyph unicode="&#x153;" horiz-adv-x="1980" d="M51 524q0 162 78.5 290t211 196.5t294.5 68.5q140 0 232.5 -42t174.5 -122h5q73 80 160.5 122t228.5 42q152 0 263.5 -66.5t167.5 -181t56 -262.5l-8 -110h-664q20 -94 88 -146.5t156 -52.5q68 0 140.5 27t111.5 53l39 27l131 -238q-7 -6 -20 -16.5t-57.5 -37t-93.5 -47 t-125 -37t-155 -16.5q-150 0 -242.5 45.5t-168.5 129.5h-4q-54 -55 -105 -90t-131 -60t-178 -25q-163 0 -296 67.5t-211.5 194t-78.5 287.5zM408 524q0 -115 69.5 -184.5t169.5 -69.5t170 69.5t70 184.5q0 117 -70 188.5t-170 71.5t-169.5 -71.5t-69.5 -188.5zM1257 655h310 q-2 60 -39.5 109t-95.5 49q-74 0 -117 -44t-58 -114z" />
<glyph unicode="&#x178;" horiz-adv-x="1374" d="M20 1198v266h607v-266h-123l149 -270q10 -18 18.5 -36t11.5 -27l3 -9h4q10 31 33 72l149 270h-122v266h604v-266h-125l-359 -598v-334h164v-266h-694v266h164v334l-359 598h-125zM309 1579v287h269v-287h-269zM809 1579v287h268v-287h-268z" />
<glyph unicode="&#x2c6;" horiz-adv-x="995" d="M123 1559l203 307h344l202 -307h-276l-96 167h-4l-97 -167h-276z" />
<glyph unicode="&#x2dc;" horiz-adv-x="993" d="M84 1559q0 313 262 313q38 0 71.5 -12.5t57 -31t44 -36.5t42.5 -30.5t43 -12.5q76 0 76 117h229q0 -314 -262 -314q-38 0 -71.5 12.5t-57 31t-44 36.5t-42.5 30.5t-43 12.5q-76 0 -76 -116h-229z" />
<glyph unicode="&#x2000;" horiz-adv-x="953" />
<glyph unicode="&#x2001;" horiz-adv-x="1907" />
<glyph unicode="&#x2002;" horiz-adv-x="953" />
<glyph unicode="&#x2003;" horiz-adv-x="1907" />
<glyph unicode="&#x2004;" horiz-adv-x="635" />
<glyph unicode="&#x2005;" horiz-adv-x="476" />
<glyph unicode="&#x2006;" horiz-adv-x="317" />
<glyph unicode="&#x2007;" horiz-adv-x="317" />
<glyph unicode="&#x2008;" horiz-adv-x="238" />
<glyph unicode="&#x2009;" horiz-adv-x="381" />
<glyph unicode="&#x200a;" horiz-adv-x="105" />
<glyph unicode="&#x2010;" horiz-adv-x="925" d="M141 434v307h643v-307h-643z" />
<glyph unicode="&#x2011;" horiz-adv-x="925" d="M141 434v307h643v-307h-643z" />
<glyph unicode="&#x2012;" horiz-adv-x="925" d="M141 434v307h643v-307h-643z" />
<glyph unicode="&#x2013;" horiz-adv-x="1511" d="M145 455v266h1221v-266h-1221z" />
<glyph unicode="&#x2014;" horiz-adv-x="1921" d="M145 455v266h1631v-266h-1631z" />
<glyph unicode="&#x2018;" horiz-adv-x="534" d="M63 973l183 522h239l-110 -522h-312z" />
<glyph unicode="&#x2019;" horiz-adv-x="516" d="M74 973l110 522h312l-183 -522h-239z" />
<glyph unicode="&#x201a;" horiz-adv-x="548" d="M45 -182l111 522h301l-183 -522h-229z" />
<glyph unicode="&#x201c;" horiz-adv-x="942" d="M63 973l183 522h241l-110 -522h-314zM469 973l182 522h242l-111 -522h-313z" />
<glyph unicode="&#x201d;" horiz-adv-x="923" d="M74 973l110 522h314l-183 -522h-241zM479 973l111 522h313l-182 -522h-242z" />
<glyph unicode="&#x201e;" horiz-adv-x="942" d="M45 -182l111 522h301l-183 -522h-229zM438 -182l111 522h301l-182 -522h-230z" />
<glyph unicode="&#x2022;" horiz-adv-x="942" d="M90 596q0 158 111.5 269.5t269.5 111.5t269.5 -111.5t111.5 -269.5t-111.5 -269.5t-269.5 -111.5t-269.5 111.5t-111.5 269.5z" />
<glyph unicode="&#x2026;" horiz-adv-x="1896" d="M123 0v336h323v-336h-323zM786 0v336h324v-336h-324zM1450 0v336h324v-336h-324z" />
<glyph unicode="&#x202f;" horiz-adv-x="381" />
<glyph unicode="&#x2039;" horiz-adv-x="802" d="M59 578l336 421h324l-336 -421l336 -420h-324z" />
<glyph unicode="&#x203a;" horiz-adv-x="802" d="M84 158l336 420l-336 421h324l335 -421l-335 -420h-324z" />
<glyph unicode="&#x205f;" horiz-adv-x="476" />
<glyph unicode="&#x20ac;" horiz-adv-x="1249" d="M72 475v187h114q-7 78 -2 139h-112v186h147q72 221 265 361.5t442 140.5q55 0 114.5 -7.5t91.5 -14.5l33 -7l-84 -303q-84 21 -166 21q-103 0 -183.5 -51t-127.5 -140h440l-40 -186h-447q-5 -64 4 -139h414l-41 -187h-307q51 -84 131.5 -133t173.5 -49q45 0 94.5 7.5 t76.5 15.5l27 8l58 -308q-112 -41 -262 -41q-258 0 -444 137.5t-259 362.5h-151z" />
<glyph unicode="&#x2122;" horiz-adv-x="2004" d="M43 1241v223h836v-223h-287v-692h-258v692h-291zM918 549l71 915h242l149 -358l27 -90h4q15 59 27 90l149 358h242l67 -915h-260l-20 356l2 66h-4l-105 -256h-200l-105 256h-4l2 -66l-24 -356h-260z" />
<glyph unicode="&#xe000;" horiz-adv-x="1054" d="M0 0v1055h1055v-1055h-1055z" />
</font>
</defs>
</svg>
